<svg width="363" height="403" viewBox="0 0 363 403" fill="none" xmlns="http://www.w3.org/2000/svg">
<path d="M168.425 4.79517C175.526 1.06828 186.33 1.06828 193.431 4.79517L265.885 42.8248C270.217 45.0983 272.571 48.5004 272.946 52.0004L273 52V244L272.989 244C272.809 247.723 270.441 251.396 265.885 253.808L193.431 292.18C186.33 295.94 175.526 295.94 168.426 292.18L95.9716 253.808C91.3412 251.356 89.119 247.555 89.0089 243.77L89.019 244H89V52L89.0292 52.0008C89.3053 48.4595 91.5485 45.146 95.9709 42.8248L168.425 4.79517ZM100 158.98V243.173L168.426 279.219C172.376 281.336 176.481 283.398 180.484 283.555L180.928 283.565C184.555 283.577 188.087 281.93 191.648 280.183L192.932 279.553L262 242.867V159.724L194.243 195.205C187.257 198.863 176.696 198.93 169.578 195.408L169.178 195.205L100 158.98ZM77.4266 240C77.4266 247.306 78.2848 252.108 79.9888 255.491C81.4012 258.295 83.5203 260.438 87.3897 263.045L87.6106 263.193C88.4597 263.76 89.3952 264.353 90.5338 265.051L91.8766 265.864L96 268.326L90.086 278L85.4708 275.242L84.6951 274.771C83.3607 273.956 82.2547 273.256 81.223 272.568C70.1952 265.212 66.0824 257.192 66.0012 240.508L66 240H77.4266ZM187.002 108.055V185.945C187.692 185.736 188.333 185.483 188.904 185.183L261.53 147.154C261.606 147.114 261.679 147.074 261.748 147.035L261.809 147L261.695 146.935L261.53 146.846L188.904 108.817C188.333 108.517 187.692 108.264 187.002 108.055ZM176 108.19C175.468 108.37 174.971 108.579 174.517 108.817L101.892 146.846C101.815 146.886 101.743 146.926 101.673 146.965L101.612 147L101.726 147.065L101.892 147.154L174.517 185.183C174.971 185.421 175.468 185.63 176 185.81V108.19ZM100 65.29V135.018L166.503 100.195L100 65.29ZM262 65.214L196.133 99.785L262 134.275V65.214ZM188.104 14.8166C184.337 12.8389 177.52 12.8389 173.752 14.8166L101.297 52.8462C101.221 52.8861 101.149 52.9256 101.08 52.9646L101.018 53L101.132 53.0647L101.297 53.1538L173.752 91.1834C177.52 93.1611 184.337 93.1611 188.104 91.1834L260.559 53.1538C260.635 53.1139 260.708 53.0744 260.777 53.0354L260.838 53L260.724 52.9353L260.559 52.8462L188.104 14.8166ZM272.914 19L277.529 21.7578L278.305 22.229C279.639 23.044 280.745 23.7441 281.777 24.4323C292.805 31.7883 296.918 39.8083 296.999 56.4918L297 57H285.573C285.573 49.6939 284.715 44.8919 283.011 41.5089C281.599 38.7049 279.48 36.562 275.61 33.9546L275.389 33.8065C274.54 33.2401 273.605 32.6466 272.466 31.9493L271.123 31.1356L267 28.6736L272.914 19Z" fill="#1969FF"/>
<path d="M21.7602 402.232V355.469H34.7284V346.906H21.7602V340.759C21.7602 333.807 24.8008 330.331 30.8819 330.331C32.6403 330.331 34.5086 330.623 36.4868 331.209V322.098C34.069 321.366 31.3948 321 28.4641 321C22.8226 321 18.4449 322.61 15.3311 325.83C12.2172 329.05 10.6603 333.734 10.6603 339.881V346.906H0V355.469H10.6603V402.232H21.7602ZM66.8193 403C71.0687 403 74.787 402.122 77.9741 400.365C81.1612 398.609 83.5607 396.084 85.1726 392.791V402.232H96.1626V346.906H85.1726V355.908C83.4874 352.614 81.0696 350.071 77.9192 348.278C74.7687 346.485 71.0687 345.589 66.8193 345.589C62.0569 345.589 57.8074 346.797 54.0708 349.212C50.3342 351.627 47.4219 355.029 45.3338 359.42C43.2457 363.811 42.2016 368.861 42.2016 374.569C42.2016 380.277 43.2274 385.272 45.2788 389.553C47.3303 393.834 50.206 397.145 53.906 399.487C57.606 401.829 61.9104 403 66.8193 403ZM69.4569 394.218C64.4015 394.218 60.4634 392.498 57.6426 389.059C54.8218 385.619 53.4114 380.789 53.4114 374.569C53.4114 368.275 54.8218 363.354 57.6426 359.805C60.4634 356.255 64.3648 354.481 69.347 354.481C74.4024 354.481 78.3038 356.2 81.0513 359.64C83.7988 363.079 85.1726 367.983 85.1726 374.349C85.1726 380.643 83.7988 385.528 81.0513 389.004C78.3038 392.48 74.439 394.218 69.4569 394.218ZM123.418 402.232V370.727C123.418 365.824 124.828 361.909 127.649 358.981C130.47 356.054 134.225 354.59 138.914 354.59C143.017 354.59 146.002 355.688 147.871 357.884C149.739 360.079 150.673 363.592 150.673 368.422V402.232H161.773V367.763C161.773 352.98 155.142 345.589 141.881 345.589C137.632 345.589 133.84 346.522 130.506 348.388C127.173 350.254 124.627 352.944 122.868 356.456L121.879 346.906H111.549C112.135 351.517 112.428 356.713 112.428 362.494V402.232H123.418ZM198.919 403C201.996 403 204.744 402.598 207.162 401.793V392.791C205.183 393.377 203.242 393.669 201.337 393.669C198.406 393.669 196.117 392.883 194.468 391.309C192.82 389.736 191.995 387.046 191.995 383.241V355.469H207.272V346.906H191.995V329.233L180.896 333.075V346.906H170.125V355.469H180.896V384.119C180.896 390.266 182.471 394.95 185.621 398.17C188.772 401.39 193.204 403 198.919 403ZM241.341 403C246.689 403 251.415 401.829 255.518 399.487C259.621 397.145 262.789 393.816 265.024 389.498C267.259 385.18 268.376 380.131 268.376 374.349C268.376 368.568 267.259 363.5 265.024 359.146C262.789 354.792 259.621 351.444 255.518 349.102C251.415 346.76 246.689 345.589 241.341 345.589C235.919 345.589 231.157 346.76 227.054 349.102C222.951 351.444 219.782 354.792 217.547 359.146C215.313 363.5 214.195 368.568 214.195 374.349C214.195 380.131 215.313 385.18 217.547 389.498C219.782 393.816 222.951 397.145 227.054 399.487C231.157 401.829 235.919 403 241.341 403ZM241.231 394.218C236.175 394.218 232.274 392.535 229.526 389.169C226.779 385.802 225.405 380.863 225.405 374.349C225.405 367.983 226.797 363.079 229.581 359.64C232.365 356.2 236.285 354.481 241.341 354.481C246.323 354.481 250.188 356.2 252.935 359.64C255.683 363.079 257.056 367.983 257.056 374.349C257.056 380.863 255.701 385.802 252.99 389.169C250.279 392.535 246.359 394.218 241.231 394.218ZM292.334 402.232V370.946C292.334 365.897 293.58 361.909 296.071 358.981C298.562 356.054 301.932 354.59 306.182 354.59C309.845 354.59 312.501 355.688 314.149 357.884C315.798 360.079 316.622 363.555 316.622 368.312V402.232H327.722V370.946C327.722 365.897 328.949 361.909 331.404 358.981C333.858 356.054 337.21 354.59 341.46 354.59C345.123 354.59 347.779 355.688 349.427 357.884C351.076 360.079 351.9 363.555 351.9 368.312V402.232H363V367.763C363 352.98 356.846 345.589 344.537 345.589C340.434 345.589 336.752 346.54 333.492 348.443C330.231 350.346 327.759 352.944 326.074 356.237C323.436 349.138 317.831 345.589 309.259 345.589C305.229 345.589 301.712 346.504 298.708 348.333C295.704 350.163 293.397 352.761 291.785 356.127L290.796 346.906H280.465C281.051 351.517 281.344 356.713 281.344 362.494V402.232H292.334Z" fill="#1969FF"/>
</svg>
